<svg width="71" height="71" fill="none" xmlns="http://www.w3.org/2000/svg"><path d="M36.619 0c4.845-.03 10.416 1.243 15.612 3.98 3.22 1.697 6.119 3.852 8.73 6.412 3.379 3.314 6.048 7.11 7.833 11.48.87 2.13 1.504 4.368 2.11 6.593.507 1.858-1.07 3.685-3.124 3.8-2.137.12-3.855-1.289-4.483-3.51-2.825-9.982-9.24-16.601-18.998-19.955-3.767-1.295-7.694-1.521-11.661-1.156-9.009.83-15.911 5.216-21.078 12.495-1.858 2.616-3.107 5.54-3.917 8.647-.503 1.932-1.839 3.264-3.803 3.41-2.547.187-4.218-1.86-3.766-3.855 1.398-6.183 4.098-11.685 8.387-16.382 4-4.38 8.733-7.69 14.307-9.761C26.904.66 31.192 0 36.618 0ZM35.68 35.665h18.286c1.113 0 1.091 0 1.026 1.075-.19 3.163-1.091 6.11-2.731 8.813-2.827 4.657-6.927 7.596-12.215 8.905-1.983.49-4.005.689-6.02.473-4.117-.442-7.842-1.907-10.99-4.66-3.868-3.384-6.082-7.634-6.61-12.751-.039-.375-.063-.751-.119-1.123-.09-.605.18-.746.752-.743 4.293.02 8.587.01 12.88.01l5.74.001ZM39.342 67.213c.006-1.768 1.397-3.581 3.088-4.022 2.779-.725 5.46-1.693 7.963-3.167 1.93-1.137 3.861-.866 5.175.596 1.536 1.706 1.24 4.066-.627 5.371-3.388 2.368-7.11 3.921-11.082 4.889-2.448.596-4.526-1.088-4.517-3.667ZM18.55 59.32c.655.193 1.383.26 1.952.6 2.598 1.549 5.402 2.527 8.29 3.327 2.73.756 4.023 3.918 2.569 6.175-.858 1.333-2.095 1.818-3.629 1.468-4.098-.937-7.923-2.532-11.502-4.763-2.275-1.417-2.404-4.332-.216-5.893.777-.555 1.54-.798 2.536-.914ZM7.878 56.553c-1.374.035-2.267-.527-2.934-1.522C2.53 51.436 1.08 47.44.062 43.27c-.385-1.578 1.07-3.457 2.856-3.844 2.241-.485 4.124 1.22 4.682 2.862.63 1.848 1.26 3.697 1.978 5.51.34.86.885 1.64 1.34 2.454.66 1.184 1.04 2.402.515 3.751-.617 1.587-2.005 2.547-3.555 2.55ZM59.32 52.629c.29-.754.476-1.572.89-2.25 1.433-2.354 2.426-4.878 3.101-7.537.558-2.196 2.308-3.604 4.398-3.494 2.131.113 3.681 2.094 3.204 4.172-.92 4.011-2.375 7.807-4.655 11.256-.997 1.508-2.404 2.087-3.976 1.62-1.676-.497-2.805-1.99-2.962-3.767Z" fill="#CCC"/></svg>
