<svg xmlns="http://www.w3.org/2000/svg" width="1em" height="1em" viewBox="0 0 24 24"><g fill="#FFF" fill-rule="evenodd"><path d="m12.594 23.258l-.012.002l-.071.035l-.02.004l-.014-.004l-.071-.036q-.016-.004-.024.006l-.004.01l-.017.428l.005.02l.01.013l.104.074l.015.004l.012-.004l.104-.074l.012-.016l.004-.017l-.017-.427q-.004-.016-.016-.018m.264-.113l-.014.002l-.184.093l-.01.01l-.003.011l.018.43l.005.012l.008.008l.201.092q.019.005.029-.008l.004-.014l-.034-.614q-.005-.019-.02-.022m-.715.002a.02.02 0 0 0-.027.006l-.006.014l-.034.614q.001.018.017.024l.015-.002l.201-.093l.01-.008l.003-.011l.018-.43l-.003-.012l-.01-.01z"/><path fill="#FFF" d="M4.929 4.929c3.905-3.905 10.237-3.905 14.142 0s3.905 10.237 0 14.142a1 1 0 0 1-1.414 0L4.929 6.343a1 1 0 0 1 0-1.414m-1.76 2.483a1 1 0 0 1 1.415 0l12.004 12.004a1 1 0 1 1-1.415 1.414L3.17 8.827a1 1 0 0 1 0-1.415Zm-.862 3.38a1 1 0 0 1 1.414 0l9.487 9.487a1 1 0 0 1-1.414 1.414l-9.487-9.487a1 1 0 0 1 0-1.414m.5 4.744a1 1 0 0 1 1.415 0l4.242 4.242a1 1 0 1 1-1.414 1.414L2.808 16.95a1 1 0 0 1 0-1.414Z"/></g></svg>
