<?xml version="1.0" encoding="UTF-8"?>
<svg width="100px" height="100px" viewBox="0 0 100 100" version="1.1" xmlns="http://www.w3.org/2000/svg" xmlns:xlink="http://www.w3.org/1999/xlink">
    <title>Linear</title>
    <g id="Linear" stroke="none" stroke-width="1" fill="none" fill-rule="evenodd">
        <path d="M50,0 C77.6142375,0 100,22.3857625 100,50 C100,77.6142375 77.6142375,100 50,100 C22.3857625,100 0,77.6142375 0,50 C0,22.3857625 22.3857625,0 50,0 Z M50,20 C33.4314575,20 20,33.4314575 20,50 C20,66.5685425 33.4314575,80 50,80 C66.5685425,80 80,66.5685425 80,50 C80,33.4314575 66.5685425,20 50,20 Z M50,35 C57.7319865,35 64,41.2680135 64,49 C64,56.7319865 57.7319865,63 50,63 C42.2680135,63 36,56.7319865 36,49 C36,41.2680135 42.2680135,35 50,35 Z" id="Combined-Shape" fill="#5E6AD2"></path>
    </g>
</svg>
