<svg width="8" height="8" viewBox="0 0 8 8" fill="none" xmlns="http://www.w3.org/2000/svg">
<path d="M6.74954 2.50059C7.06689 2.5004 7.37244 2.62094 7.60419 2.83775C7.83594 3.05456 7.97655 3.3514 7.9975 3.66807L8 3.75007V6.75002C8.00005 7.06737 7.87939 7.37287 7.66249 7.60453C7.44559 7.83619 7.1487 7.97668 6.83203 7.9975L6.75004 8H3.75012C3.43277 8.00005 3.12728 7.87939 2.89562 7.66249C2.66396 7.44559 2.52347 7.14869 2.50265 6.83202L2.50015 6.75002V3.75007C2.5001 3.43271 2.62077 3.12722 2.83766 2.89556C3.05456 2.6639 3.35145 2.52341 3.66812 2.50259L3.74962 2.50059H6.74954ZM5.25008 3.50057C5.19157 3.50055 5.1349 3.52106 5.08995 3.55852C5.045 3.59597 5.01462 3.64801 5.00408 3.70557L5.00008 3.75057V5.00055H3.74962L3.70462 5.00405C3.64698 5.01448 3.59484 5.04483 3.55729 5.08979C3.51974 5.13475 3.49917 5.19147 3.49917 5.25004C3.49917 5.30862 3.51974 5.36534 3.55729 5.4103C3.59484 5.45526 3.64698 5.4856 3.70462 5.49604L3.74962 5.50004H4.99958V6.75002L5.00358 6.79502C5.01402 6.85266 5.04437 6.9048 5.08932 6.94235C5.13428 6.9799 5.191 7.00047 5.24958 7.00047C5.30815 7.00047 5.36487 6.9799 5.40983 6.94235C5.45479 6.9048 5.48513 6.85266 5.49557 6.79502L5.49957 6.75052V5.50054H6.74954L6.79453 5.49654C6.85217 5.4861 6.90432 5.45576 6.94187 5.4108C6.97942 5.36584 6.99999 5.30912 6.99999 5.25054C6.99999 5.19197 6.97942 5.13525 6.94187 5.09029C6.90432 5.04533 6.85217 5.01499 6.79453 5.00455L6.74954 5.00055H5.49957V3.75057L5.49557 3.70557C5.48504 3.64801 5.45465 3.59597 5.4097 3.55852C5.36475 3.52106 5.30809 3.50055 5.24958 3.50057M5.33057 0.847616L5.35457 0.926615L5.64207 2.0001H3.50013C3.11753 2.00008 2.74939 2.14626 2.47102 2.40873C2.19266 2.67121 2.02511 3.03013 2.00267 3.41207L2.00017 3.50007V6.17403C1.74473 6.16862 1.49708 6.08506 1.29058 5.93461C1.08408 5.78416 0.928638 5.57403 0.845199 5.33254L0.8192 5.24754L0.0427215 2.35009C-0.0395376 2.04358 -0.00212845 1.71725 0.147361 1.4373C0.29685 1.15735 0.547225 0.94475 0.847699 0.842616L0.926697 0.819117L3.82412 0.0426293C4.11705 -0.0358968 4.42853 -0.00524493 4.70054 0.128874C4.97255 0.262992 5.18651 0.491429 5.30258 0.771617L5.33057 0.847616Z" fill="#6D7077"/>
</svg>

