<?xml version="1.0" encoding="utf-8"?>
<!-- Generator: Adobe Illustrator 27.5.0, SVG Export Plug-In . SVG Version: 6.00 Build 0)  -->
<svg version="1.1" xmlns="http://www.w3.org/2000/svg" xmlns:xlink="http://www.w3.org/1999/xlink" x="0px" y="0px"
	 viewBox="0 0 500 500" style="enable-background:new 0 0 500 500;" xml:space="preserve">
<g id="BACKGROUND">
	<rect style="fill:#FFFFFF;" width="500" height="500"/>
</g>
<g id="OBJECTS">
	<g>
		<g>
			<path style="fill:#D5FAF6;" d="M396.067,319.348c0,0,78.907-122.936,42.545-201.554S315.463,38.727,285.46,71.584
				c-18.338,20.083-12.993,53.627-56.406,66.604c-26.557,7.938-45.89-4.79-85.48-18.593s-85.554,16.204-91.202,64.117
				c-6.339,53.778,42.611,81.891,69.482,101.249c26.871,19.358,13.262,51.466,24.402,81.534
				C157.396,396.563,337.071,428.481,396.067,319.348z"/>
			<path style="fill:#FFFFFF;" d="M435.108,183.712c0,0,6.003-69.485-39.041-104.026c-38.739-29.707-77.464-15.303-89.652-2.251
				c-12.188,13.053,1.148,28.806,34.815,26.556S425.956,124.996,435.108,183.712z"/>
		</g>
		<g>
			<g>
				<ellipse style="fill:#D2EDFF;" cx="220.583" cy="439.724" rx="42.911" ry="9.276"/>
				<ellipse style="fill:#D2EDFF;" cx="372.821" cy="430.448" rx="42.911" ry="9.276"/>
				<ellipse style="fill:#D2EDFF;" cx="304.55" cy="421.172" rx="111.351" ry="9.276"/>
				<ellipse style="fill:#D2EDFF;" cx="169.372" cy="414.858" rx="111.351" ry="9.276"/>
			</g>
			<g>
				<g>
					<g>
						<g>
							<g>
								<g>
									<g>
										<g>
											<circle style="fill:#ACDAFF;" cx="143.19" cy="232.609" r="70.724"/>
											<circle style="fill:#E6FFFF;" cx="143.19" cy="232.609" r="61.259"/>
											<path style="opacity:0.57;fill:#FFFAFF;" d="M165.103,234.994c8.544-12.911,9.45-36.178,5.156-48.571
												c-7.826-4.597-16.92-7.276-26.648-7.353c-29.568-0.232-53.727,23.549-53.959,53.118
												c-0.067,8.551,1.884,16.643,5.393,23.841c0.416,0.059,0.857,0.021,1.246,0.183
												C115.846,264.365,149.039,259.269,165.103,234.994z"/>
										</g>
									</g>
									<g>
										<g>
											<g>
												<g>
													<g>
														<path style="fill:#ACDAFF;" d="M143.514,191.317L143.514,191.317c1.03,0.008,1.879-0.828,1.887-1.858l0.09-11.466
															c0.008-1.03-0.828-1.879-1.858-1.887l0,0c-1.03-0.008-1.879,0.828-1.887,1.858l-0.09,11.466
															C141.649,190.46,142.484,191.309,143.514,191.317z"/>
														<path style="fill:#ACDAFF;" d="M142.746,289.111L142.746,289.111c1.03,0.008,1.879-0.828,1.887-1.858l0.09-11.466
															c0.008-1.03-0.828-1.879-1.858-1.887h0c-1.03-0.008-1.879,0.828-1.887,1.858l-0.09,11.466
															C140.881,288.254,141.716,289.103,142.746,289.111z"/>
													</g>
												</g>
												<g>
													<g>
														<path style="fill:#ACDAFF;" d="M184.482,232.933L184.482,232.933c-0.008,1.03,0.828,1.879,1.858,1.887l11.466,0.09
															c1.03,0.008,1.879-0.828,1.887-1.858l0,0c0.008-1.03-0.828-1.879-1.858-1.887l-11.466-0.09
															C185.339,231.068,184.49,231.903,184.482,232.933z"/>
														<path style="fill:#ACDAFF;" d="M86.688,232.165L86.688,232.165c-0.008,1.03,0.828,1.879,1.858,1.887l11.466,0.09
															c1.03,0.008,1.879-0.828,1.887-1.858l0,0c0.008-1.03-0.828-1.879-1.858-1.887l-11.466-0.09
															C87.545,230.299,86.696,231.135,86.688,232.165z"/>
													</g>
												</g>
											</g>
											<g>
												<circle style="fill:#ACDAFF;" cx="168.661" cy="189.28" r="1.872"/>
												<circle style="fill:#ACDAFF;" cx="117.718" cy="275.937" r="1.872"/>
											</g>
											<g>
												<circle style="fill:#ACDAFF;" cx="186.913" cy="207.821" r="1.872"/>
												<circle style="fill:#ACDAFF;" cx="99.467" cy="257.397" r="1.872"/>
											</g>
											<g>
												<circle style="fill:#ACDAFF;" cx="186.519" cy="258.08" r="1.872"/>
												<circle style="fill:#ACDAFF;" cx="99.861" cy="207.137" r="1.872"/>
											</g>
											<g>
												<circle style="fill:#ACDAFF;" cx="167.978" cy="276.332" r="1.872"/>
												<circle style="fill:#ACDAFF;" cx="118.402" cy="188.886" r="1.872"/>
											</g>
										</g>
									</g>
								</g>
								<g>
									<path style="fill:#FFBC00;" d="M162.198,218.53c5.6-2.185,31.733-13.426,31.733-13.426l0.096,0.179l0.19,0.354l0.096,0.179
										c0,0-23.785,15.608-28.694,19.076c-4.909,3.468-22.316,8.892-22.316,8.892l-0.317-0.59l-0.19-0.354l-0.317-0.59
										C142.478,232.249,156.599,220.715,162.198,218.53z"/>
									<path style="fill:#FFBC00;" d="M125.421,236.409c-4.286-0.664-24.627-2.838-24.627-2.838l-0.003-0.203l-0.006-0.402
										l-0.003-0.203c0,0,20.267-2.783,24.531-3.576s17.14,2.484,17.14,2.484l0.01,0.67l0.006,0.402l0.01,0.67
										C142.478,233.413,129.707,237.074,125.421,236.409z"/>
									<circle style="fill:#ACDAFF;" cx="143.19" cy="232.609" r="3.745"/>
								</g>
							</g>
						</g>
						<g>
							<g>
								<path style="fill:#ACDAFF;" d="M106.013,309.088l-16.658,99.784c-0.192,1.149,0.694,2.195,1.859,2.195l0,0
									c0.887,0,1.654-0.618,1.842-1.485l21.81-100.494H106.013z"/>
								<path style="fill:#ACDAFF;" d="M122.117,303.095L110.38,403.577c-0.135,1.157,0.801,2.159,1.965,2.101l0,0
									c0.886-0.044,1.622-0.699,1.767-1.574l16.848-101.444L122.117,303.095z"/>
							</g>
							<g>
								<path style="fill:#ACDAFF;" d="M190.982,309.088l16.658,99.784c0.192,1.149-0.694,2.195-1.859,2.195l0,0
									c-0.887,0-1.654-0.618-1.842-1.485l-21.81-100.494H190.982z"/>
								<path style="fill:#ACDAFF;" d="M174.878,303.095l11.738,100.482c0.135,1.157-0.801,2.159-1.965,2.101l0,0
									c-0.886-0.044-1.622-0.699-1.767-1.574l-16.848-101.444L174.878,303.095z"/>
							</g>
							<path style="fill:#2099FF;" d="M205.079,311.411H93.596c-2.534,0-4.608-2.074-4.608-4.608l0,0
								c0-2.534,2.074-4.608,4.608-4.608h111.483c2.534,0,4.608,2.074,4.608,4.608l0,0
								C209.687,309.338,207.613,311.411,205.079,311.411z"/>
						</g>
					</g>
					<g>
						<g>
							<path style="fill:#6CB7D8;" d="M94.971,388.403l-0.284-0.101c0.034-0.094,3.328-9.546,1.431-20.733
								c-1.749-10.315-8.401-24.263-30.157-32.133l0.102-0.284c9.665,3.496,17.201,8.47,22.397,14.785
								c4.16,5.055,6.837,10.975,7.957,17.593C98.323,378.792,95.004,388.308,94.971,388.403z"/>
						</g>
						<g>
							<path style="fill:#6CB7D8;" d="M69.017,336.456c0,0-5.721,0.864-8.67-1.769C57.397,332.055,62.423,330.784,69.017,336.456z"
								/>
						</g>
						<g>
							<path style="fill:#6CB7D8;" d="M74.944,339.267c0,0-1.791-7.568-4.571-9.058C67.592,328.719,67.201,334.112,74.944,339.267z"
								/>
						</g>
						<g>
							<path style="fill:#6CB7D8;" d="M74.037,338.748c0,0-7.699-1.097-10.102,0.947C61.533,341.739,66.41,344.072,74.037,338.748z"
								/>
						</g>
						<g>
							<path style="fill:#6CB7D8;" d="M78.768,341.648c0,0-7.699-1.097-10.102,0.947C66.264,344.639,71.141,346.973,78.768,341.648z
								"/>
						</g>
						<g>
							<path style="fill:#6CB7D8;" d="M83.531,345.012c0,0-7.699-1.097-10.102,0.947C71.027,348.003,75.904,350.336,83.531,345.012z
								"/>
						</g>
						<g>
							<path style="fill:#6CB7D8;" d="M88.141,349.66c0,0-7.587-1.71-10.145,0.135C75.437,351.64,80.112,354.357,88.141,349.66z"/>
						</g>
						<g>
							<path style="fill:#6CB7D8;" d="M92.358,355.832c0,0-7.052-3.279-9.943-2.018C79.524,355.076,83.517,358.721,92.358,355.832z"
								/>
						</g>
						<g>
							<path style="fill:#6CB7D8;" d="M95.426,363.393c0,0-5.632-5.364-8.775-5.094S86.124,363.3,95.426,363.393z"/>
						</g>
						<g>
							<path style="fill:#6CB7D8;" d="M96.765,372.231c0,0-3.517-6.936-6.57-7.732C87.142,363.704,88.028,369.038,96.765,372.231z"
								/>
						</g>
						<g>
							<path style="fill:#6CB7D8;" d="M96.424,380.912c0,0-1.828-7.559-4.615-9.035S88.656,375.794,96.424,380.912z"/>
						</g>
						<g>
							<path style="fill:#6CB7D8;" d="M80.245,342.561c0,0,0.756-6.651-1.803-10.209c-2.56-3.558-3.423,0.522-2.439,2.817
								C76.986,337.464,80.245,342.561,80.245,342.561z"/>
						</g>
						<g>
							<path style="fill:#6CB7D8;" d="M84.128,345.642c0,0,1.799-6.448-0.166-10.366c-1.965-3.918-3.462-0.026-2.854,2.395
								S84.128,345.642,84.128,345.642z"/>
						</g>
						<g>
							<path style="fill:#6CB7D8;" d="M87.741,349.273c0,0,3.244-5.855,2.241-10.122c-1.003-4.267-3.362-0.828-3.332,1.669
								C86.68,343.316,87.741,349.273,87.741,349.273z"/>
						</g>
						<g>
							<path style="fill:#6CB7D8;" d="M91.262,353.946c0,0,3.244-5.855,2.241-10.122c-1.003-4.267-3.362-0.828-3.332,1.669
								C90.202,347.989,91.262,353.946,91.262,353.946z"/>
						</g>
						<g>
							<path style="fill:#6CB7D8;" d="M94.33,360.338c0,0,3.972-5.388,3.527-9.749c-0.445-4.36-3.227-1.254-3.519,1.225
								C94.047,354.295,94.33,360.338,94.33,360.338z"/>
						</g>
						<g>
							<path style="fill:#6CB7D8;" d="M96.401,368.827c0,0,4.923-4.536,5.313-8.902c0.391-4.366-2.931-1.844-3.687,0.535
								C97.27,362.839,96.401,368.827,96.401,368.827z"/>
						</g>
						<g>
							<path style="fill:#6CB7D8;" d="M96.748,376.538c0,0,5.733-3.455,6.994-7.653c1.26-4.198-2.5-2.395-3.72-0.217
								C98.802,370.847,96.748,376.538,96.748,376.538z"/>
						</g>
					</g>
					<g>
						<g>
							<path style="fill:#6CB7D8;" d="M131.905,373.523l0.284-0.101c-0.034-0.094-3.328-9.547-1.431-20.733
								c1.749-10.315,8.401-24.263,30.157-32.133l-0.102-0.284c-9.665,3.496-17.201,8.47-22.397,14.785
								c-4.16,5.055-6.837,10.974-7.957,17.593C128.553,363.912,131.871,373.428,131.905,373.523z"/>
						</g>
						<g>
							<path style="fill:#6CB7D8;" d="M157.859,321.576c0,0,5.721,0.864,8.67-1.769
								C169.479,317.176,164.453,315.904,157.859,321.576z"/>
						</g>
						<g>
							<path style="fill:#6CB7D8;" d="M151.932,324.387c0,0,1.791-7.568,4.571-9.058
								C159.284,313.84,159.675,319.232,151.932,324.387z"/>
						</g>
						<g>
							<path style="fill:#6CB7D8;" d="M152.839,323.868c0,0,7.699-1.097,10.102,0.947
								C165.343,326.859,160.466,329.193,152.839,323.868z"/>
						</g>
						<g>
							<path style="fill:#6CB7D8;" d="M148.108,326.768c0,0,7.699-1.097,10.102,0.947S155.735,332.093,148.108,326.768z"/>
						</g>
						<g>
							<path style="fill:#6CB7D8;" d="M143.345,330.132c0,0,7.699-1.097,10.102,0.947S150.972,335.456,143.345,330.132z"/>
						</g>
						<g>
							<path style="fill:#6CB7D8;" d="M138.735,334.78c0,0,7.587-1.71,10.145,0.135C151.439,336.761,146.764,339.477,138.735,334.78
								z"/>
						</g>
						<g>
							<path style="fill:#6CB7D8;" d="M134.518,340.953c0,0,7.052-3.279,9.943-2.018
								C147.352,340.196,143.359,343.841,134.518,340.953z"/>
						</g>
						<g>
							<path style="fill:#6CB7D8;" d="M131.45,348.513c0,0,5.632-5.364,8.775-5.094S140.752,348.42,131.45,348.513z"/>
						</g>
						<g>
							<path style="fill:#6CB7D8;" d="M130.111,357.352c0,0,3.517-6.936,6.57-7.732
								C139.734,348.825,138.848,354.158,130.111,357.352z"/>
						</g>
						<g>
							<path style="fill:#6CB7D8;" d="M130.452,366.032c0,0,1.828-7.559,4.615-9.035S138.22,360.915,130.452,366.032z"/>
						</g>
						<g>
							<path style="fill:#6CB7D8;" d="M146.631,327.681c0,0-0.756-6.651,1.803-10.209c2.56-3.558,3.423,0.522,2.439,2.817
								C149.89,322.584,146.631,327.681,146.631,327.681z"/>
						</g>
						<g>
							<path style="fill:#6CB7D8;" d="M142.748,330.762c0,0-1.799-6.448,0.166-10.366c1.965-3.918,3.462-0.026,2.854,2.396
								C145.16,325.213,142.748,330.762,142.748,330.762z"/>
						</g>
						<g>
							<path style="fill:#6CB7D8;" d="M139.135,334.393c0,0-3.244-5.855-2.241-10.122s3.362-0.828,3.332,1.669
								C140.196,328.436,139.135,334.393,139.135,334.393z"/>
						</g>
						<g>
							<path style="fill:#6CB7D8;" d="M135.614,339.066c0,0-3.244-5.855-2.241-10.122s3.362-0.828,3.332,1.669
								C136.674,333.109,135.614,339.066,135.614,339.066z"/>
						</g>
						<g>
							<path style="fill:#6CB7D8;" d="M132.546,345.459c0,0-3.972-5.388-3.527-9.749c0.445-4.36,3.227-1.254,3.519,1.225
								C132.829,339.415,132.546,345.459,132.546,345.459z"/>
						</g>
						<g>
							<path style="fill:#6CB7D8;" d="M130.475,353.947c0,0-4.923-4.536-5.313-8.902c-0.391-4.366,2.931-1.844,3.687,0.535
								C129.606,347.96,130.475,353.947,130.475,353.947z"/>
						</g>
						<g>
							<path style="fill:#6CB7D8;" d="M130.128,361.659c0,0-5.733-3.455-6.994-7.653s2.5-2.395,3.72-0.217
								C128.074,355.968,130.128,361.659,130.128,361.659z"/>
						</g>
					</g>
					<g>
						<g>
							<g>
								<path style="fill:#82C4E8;" d="M98.762,360.567c0,0-6.685-19.787-0.668-25.47c6.017-5.683-1.45-13.748,0.318-19.002
									c1.769-5.253,8.246-8.375,11.071,1.263s3.625,9.936,10.724,10.38s6.553,14.738,5.298,21.314
									c-1.255,6.577,5.717-3.812,7.826,3.247s-8.107,21.615-18.852,29.202s-23.887-13.99-22.985-19.387
									C92.397,356.718,96.341,363.942,98.762,360.567z"/>
							</g>
							<g>
								<path style="fill:#6CB7D8;" d="M99.708,332.966c-0.373,0.738-0.895,1.452-1.614,2.132c-6.017,5.683,0.668,25.47,0.668,25.47
									c-2.421,3.375-6.365-3.849-7.267,1.547c-0.902,5.397,12.239,26.973,22.985,19.387c0.577-0.407,1.152-0.839,1.724-1.284
									C114.957,363.338,109.257,347.158,99.708,332.966z"/>
							</g>
							<g>
								<g>
									<path style="fill:#98CFF4;" d="M110.824,383.377c-0.108,0.119-0.273,0.18-0.442,0.148
										c-0.258-0.049-0.427-0.299-0.378-0.557c0.051-0.269,5.006-27.339-7.513-66.579c-0.08-0.251,0.058-0.519,0.309-0.598
										c0.251-0.08,0.519,0.058,0.598,0.309c12.599,39.489,7.593,66.777,7.541,67.048
										C110.921,383.236,110.88,383.315,110.824,383.377z"/>
								</g>
								<g>
									<path style="fill:#98CFF4;" d="M106.248,328.028l-6.332-5.102c-0.205-0.165-0.237-0.464-0.072-0.669
										c0.165-0.201,0.465-0.237,0.669-0.072l5.478,4.414l2.887-4.838c0.136-0.228,0.427-0.3,0.653-0.165
										c0.226,0.135,0.3,0.427,0.165,0.653L106.248,328.028z"/>
								</g>
								<g>
									<path style="fill:#98CFF4;" d="M121.731,331.907c-0.01,0.011-0.02,0.022-0.031,0.032l-12.319,11.27l-9.787-6.65
										c-0.217-0.148-0.274-0.444-0.126-0.661c0.147-0.219,0.444-0.274,0.661-0.126l9.164,6.226l11.764-10.762
										c0.194-0.177,0.495-0.164,0.673,0.03C121.897,331.449,121.895,331.727,121.731,331.907z"/>
								</g>
								<g>
									<path style="fill:#98CFF4;" d="M124.4,347.619c-0.005,0.005-0.01,0.011-0.015,0.016l-13.054,13.163l-12.89-10.275
										c-0.206-0.164-0.24-0.464-0.076-0.669c0.175-0.209,0.463-0.239,0.669-0.076l12.221,9.743l12.453-12.556
										c0.185-0.187,0.487-0.188,0.673-0.003C124.564,347.142,124.57,347.432,124.4,347.619z"/>
								</g>
								<g>
									<path style="fill:#98CFF4;" d="M130.015,356.897c-0.004,0.005-0.009,0.01-0.013,0.014l-18.639,18.937l-15.978-11.173
										c-0.215-0.151-0.268-0.448-0.118-0.663c0.153-0.214,0.448-0.268,0.663-0.118l15.319,10.712l18.075-18.364
										c0.184-0.187,0.486-0.19,0.673-0.005C130.179,356.418,130.186,356.709,130.015,356.897z"/>
								</g>
							</g>
						</g>
						<g>
							<g>
								<path style="fill:#98CFF4;" d="M95.751,386.003c0,0-14.606-7.309-14.393-13.778c0.213-6.469-8.374-6.837-10.284-10.728
									s-0.031-9.191,6.844-5.393c6.874,3.798,7.483,3.522,11.67-0.139s11.753,4.577,14.677,8.921s1.077-5.264,6.134-2.505
									c5.057,2.759,7.398,16.468,5.606,26.597c-1.791,10.129-20.968,5.381-23.438,1.887S96.265,389.21,95.751,386.003z"/>
							</g>
							<g>
								<path style="fill:#82C4E8;" d="M81.081,370.153c0.2,0.615,0.303,1.299,0.277,2.072
									c-0.213,6.469,14.393,13.778,14.393,13.778c0.513,3.207-5.654,1.366-3.184,4.86c2.47,3.494,21.647,8.242,23.438-1.887
									c0.096-0.544,0.178-1.1,0.251-1.662C106.271,378.626,94.198,372.778,81.081,370.153z"/>
							</g>
							<g>
								<g>
									<path style="fill:#ACDAFF;" d="M115.008,392.031c0.005,0.125-0.052,0.25-0.164,0.326c-0.171,0.115-0.402,0.069-0.516-0.101
										c-0.12-0.177-12.27-17.939-40.826-32.84c-0.182-0.095-0.254-0.32-0.158-0.502c0.095-0.182,0.32-0.253,0.502-0.158
										c28.737,14.995,40.98,32.906,41.1,33.085C114.984,391.898,115.005,391.965,115.008,392.031z"/>
								</g>
								<g>
									<path style="fill:#ACDAFF;" d="M81.995,363.81l-6.325,0.652c-0.204,0.021-0.387-0.127-0.408-0.332
										c-0.019-0.203,0.128-0.387,0.332-0.408l5.473-0.564l-1.06-4.276c-0.05-0.202,0.072-0.402,0.272-0.451
										c0.2-0.049,0.402,0.072,0.451,0.272L81.995,363.81z"/>
								</g>
								<g>
									<path style="fill:#ACDAFF;" d="M92.73,357.44c0.001,0.012,0.001,0.023,0,0.035l-0.638,13.041l-9.096,1.695
										c-0.202,0.038-0.397-0.096-0.434-0.298c-0.039-0.203,0.096-0.397,0.298-0.434l8.517-1.587l0.609-12.453
										c0.01-0.205,0.185-0.364,0.39-0.354C92.57,357.095,92.722,357.25,92.73,357.44z"/>
								</g>
								<g>
									<path style="fill:#ACDAFF;" d="M102.862,364.697c0,0.005,0,0.011,0,0.017l-0.003,14.497l-12.815,1.39
										c-0.205,0.022-0.388-0.126-0.41-0.33c-0.018-0.212,0.126-0.388,0.33-0.41l12.151-1.317l0.003-13.829
										c0-0.206,0.167-0.372,0.372-0.372C102.69,364.342,102.853,364.5,102.862,364.697z"/>
								</g>
								<g>
									<path style="fill:#ACDAFF;" d="M111.088,366.759c0,0.005,0,0.01,0,0.015l0.074,20.779l-15.025,2.591
										c-0.203,0.035-0.395-0.101-0.43-0.304c-0.033-0.203,0.101-0.396,0.304-0.43l14.405-2.484l-0.072-20.149
										c-0.001-0.206,0.165-0.373,0.371-0.374C110.916,366.402,111.08,366.56,111.088,366.759z"/>
								</g>
							</g>
						</g>
						<g>
							<g>
								<g>
									<path style="fill:#ACDAFF;" d="M128.586,383.943c0,0,19.252-8.098,19.524-16.37c0.272-8.272,11.26-8.02,14.024-12.825
										s0.812-11.725-8.279-7.457s-9.845,3.865-14.88-1.159c-5.035-5.025-15.382,4.852-19.477,10.149
										c-4.095,5.297-0.931-6.808-7.616-3.712c-6.685,3.096-10.824,20.391-9.389,33.466c1.434,13.075,26.303,8.628,29.749,4.378
										C135.685,386.161,127.661,387.992,128.586,383.943z"/>
								</g>
							</g>
							<g>
								<path style="fill:#98CFF4;" d="M148.637,364.952c-0.306,0.768-0.495,1.632-0.528,2.621
									c-0.272,8.272-19.524,16.37-19.524,16.37c-0.925,4.049,7.1,2.218,3.655,6.469s-28.314,8.697-29.749-4.378
									c-0.077-0.702-0.135-1.418-0.18-2.142C115.782,373.646,131.68,367.198,148.637,364.952z"/>
							</g>
							<g>
								<g>
									<path style="fill:#D2EDFF;" d="M103.508,390.016c-0.018,0.159,0.046,0.324,0.182,0.429
										c0.208,0.161,0.507,0.122,0.668-0.086c0.167-0.216,17.165-21.859,54.856-38.472c0.241-0.106,0.351-0.387,0.244-0.628
										c-0.106-0.241-0.387-0.35-0.628-0.244c-37.929,16.718-55.057,38.543-55.225,38.762
										C103.548,389.849,103.517,389.932,103.508,390.016z"/>
								</g>
								<g>
									<path style="fill:#D2EDFF;" d="M148.004,356.781l8.016,1.364c0.259,0.044,0.505-0.13,0.549-0.39
										c0.041-0.257-0.131-0.505-0.39-0.549l-6.936-1.18l1.712-5.368c0.081-0.254-0.058-0.519-0.309-0.599
										c-0.251-0.08-0.519,0.058-0.599,0.309L148.004,356.781z"/>
								</g>
								<g>
									<path style="fill:#D2EDFF;" d="M134.842,347.751c-0.002,0.015-0.003,0.03-0.003,0.045l-0.283,16.694l11.465,2.928
										c0.255,0.065,0.514-0.089,0.579-0.344c0.067-0.255-0.089-0.514-0.344-0.579l-10.735-2.742l0.27-15.941
										c0.004-0.263-0.205-0.48-0.468-0.484C135.075,347.324,134.869,347.51,134.842,347.751z"/>
								</g>
								<g>
									<path style="fill:#D2EDFF;" d="M121.303,356.16c-0.001,0.007-0.002,0.014-0.002,0.021l-1.215,18.498l16.236,2.85
										c0.259,0.045,0.506-0.128,0.551-0.386c0.04-0.269-0.128-0.506-0.386-0.551l-15.394-2.703l1.158-17.646
										c0.017-0.262-0.181-0.489-0.444-0.506C121.553,355.72,121.331,355.908,121.303,356.16z"/>
								</g>
								<g>
									<path style="fill:#D2EDFF;" d="M110.633,358.098c-0.001,0.006-0.001,0.013-0.002,0.019l-1.841,26.508l18.954,4.57
										c0.256,0.061,0.513-0.096,0.575-0.351c0.059-0.256-0.096-0.513-0.351-0.575l-18.172-4.381l1.785-25.705
										c0.018-0.262-0.179-0.49-0.442-0.508C110.883,357.658,110.661,357.846,110.633,358.098z"/>
								</g>
							</g>
						</g>
						<g>
							<g>
								<path style="fill:#82C4E8;" d="M184.708,359.311c0,0,5.566-16.475,0.556-21.207s1.207-11.447-0.265-15.821
									c-1.473-4.374-6.866-6.973-9.218,1.052c-2.352,8.024-3.019,8.273-8.929,8.642c-5.911,0.369-5.456,12.271-4.411,17.747
									c1.045,5.476-4.76-3.174-6.516,2.703c-1.756,5.877,6.75,17.997,15.697,24.314c8.947,6.316,19.889-11.649,19.137-16.142
									S186.723,362.121,184.708,359.311z"/>
							</g>
							<g>
								<path style="fill:#6CB7D8;" d="M183.92,336.33c0.31,0.615,0.745,1.209,1.344,1.775c5.01,4.732-0.556,21.207-0.556,21.207
									c2.016,2.81,5.299-3.205,6.051,1.288s-10.191,22.458-19.137,16.142c-0.48-0.339-0.959-0.698-1.436-1.069
									C171.223,361.619,175.969,348.146,183.92,336.33z"/>
							</g>
							<g>
								<g>
									<path style="fill:#98CFF4;" d="M174.665,378.304c0.09,0.099,0.227,0.15,0.368,0.123c0.215-0.041,0.356-0.249,0.315-0.464
										c-0.043-0.224-4.168-22.763,6.256-55.435c0.067-0.209-0.048-0.432-0.257-0.498c-0.209-0.067-0.432,0.048-0.498,0.257
										c-10.49,32.88-6.322,55.6-6.279,55.825C174.583,378.186,174.617,378.251,174.665,378.304z"/>
								</g>
								<g>
									<path style="fill:#98CFF4;" d="M178.475,332.219l5.272-4.248c0.17-0.137,0.197-0.387,0.06-0.557
										c-0.137-0.167-0.387-0.197-0.557-0.06l-4.561,3.675L176.284,327c-0.114-0.19-0.356-0.25-0.544-0.138
										c-0.188,0.112-0.25,0.356-0.137,0.544L178.475,332.219z"/>
								</g>
								<g>
									<path style="fill:#98CFF4;" d="M165.583,335.449c0.008,0.009,0.017,0.018,0.026,0.026l10.257,9.383l8.149-5.537
										c0.181-0.123,0.228-0.37,0.105-0.551c-0.122-0.183-0.37-0.228-0.551-0.105l-7.631,5.184l-9.795-8.96
										c-0.162-0.148-0.412-0.136-0.56,0.025C165.445,335.067,165.447,335.299,165.583,335.449z"/>
								</g>
								<g>
									<path style="fill:#98CFF4;" d="M163.361,348.531c0.004,0.004,0.008,0.009,0.012,0.013l10.869,10.96l10.732-8.555
										c0.171-0.137,0.2-0.386,0.063-0.557c-0.146-0.174-0.386-0.199-0.557-0.063l-10.176,8.112l-10.368-10.454
										c-0.154-0.155-0.405-0.157-0.561-0.002C163.224,348.133,163.219,348.375,163.361,348.531z"/>
								</g>
								<g>
									<path style="fill:#98CFF4;" d="M158.685,356.256c0.004,0.004,0.007,0.008,0.011,0.012l15.519,15.768l13.304-9.303
										c0.179-0.126,0.223-0.373,0.098-0.552c-0.128-0.178-0.373-0.223-0.552-0.098l-12.755,8.919l-15.049-15.29
										c-0.154-0.156-0.405-0.158-0.56-0.005C158.549,355.857,158.543,356.099,158.685,356.256z"/>
								</g>
							</g>
						</g>
						<g>
							<g>
								<path style="fill:#98CFF4;" d="M162.261,382.282c0,0-14.606-7.309-14.393-13.778c0.213-6.469-8.374-6.837-10.284-10.728
									c-1.91-3.891-0.031-9.191,6.844-5.393c6.874,3.798,7.483,3.522,11.67-0.139c4.187-3.662,11.753,4.577,14.677,8.921
									c2.923,4.344,1.077-5.264,6.134-2.505c5.057,2.759,7.398,16.468,5.606,26.597c-1.791,10.129-20.968,5.381-23.438,1.887
									C156.606,383.648,162.774,385.489,162.261,382.282z"/>
							</g>
							<g>
								<path style="fill:#82C4E8;" d="M147.59,366.432c0.2,0.615,0.303,1.299,0.277,2.072
									c-0.213,6.469,14.393,13.778,14.393,13.778c0.513,3.207-5.654,1.366-3.184,4.86c2.47,3.494,21.647,8.242,23.438-1.887
									c0.096-0.544,0.178-1.1,0.251-1.662C172.781,374.905,160.707,369.057,147.59,366.432z"/>
							</g>
							<g>
								<g>
									<path style="fill:#ACDAFF;" d="M181.517,388.31c0.006,0.125-0.052,0.25-0.164,0.326c-0.171,0.115-0.402,0.069-0.516-0.101
										c-0.12-0.177-12.27-17.939-40.826-32.84c-0.182-0.095-0.254-0.32-0.158-0.502c0.095-0.182,0.32-0.253,0.502-0.158
										c28.737,14.995,40.98,32.906,41.1,33.085C181.494,388.177,181.514,388.243,181.517,388.31z"/>
								</g>
								<g>
									<path style="fill:#ACDAFF;" d="M148.504,360.089l-6.325,0.652c-0.204,0.021-0.387-0.127-0.408-0.332
										c-0.019-0.203,0.128-0.387,0.332-0.408l5.473-0.564l-1.06-4.276c-0.05-0.202,0.072-0.402,0.272-0.451
										c0.2-0.05,0.402,0.072,0.451,0.272L148.504,360.089z"/>
								</g>
								<g>
									<path style="fill:#ACDAFF;" d="M159.239,353.719c0.001,0.012,0.001,0.023,0,0.035l-0.638,13.041l-9.096,1.695
										c-0.202,0.038-0.397-0.096-0.434-0.298c-0.039-0.203,0.096-0.397,0.298-0.434l8.517-1.587l0.609-12.453
										c0.01-0.205,0.185-0.364,0.39-0.354C159.079,353.374,159.231,353.529,159.239,353.719z"/>
								</g>
								<g>
									<path style="fill:#ACDAFF;" d="M169.371,360.976c0,0.005,0,0.011,0,0.017l-0.003,14.497l-12.815,1.39
										c-0.205,0.022-0.388-0.126-0.41-0.33c-0.018-0.212,0.126-0.388,0.33-0.41l12.151-1.317l0.003-13.829
										c0-0.206,0.167-0.372,0.372-0.372C169.199,360.621,169.362,360.778,169.371,360.976z"/>
								</g>
								<g>
									<path style="fill:#ACDAFF;" d="M177.598,363.038c0,0.005,0,0.01,0,0.015l0.074,20.779l-15.025,2.591
										c-0.203,0.035-0.395-0.101-0.43-0.304c-0.033-0.203,0.101-0.396,0.304-0.43l14.405-2.484l-0.072-20.149
										c-0.001-0.206,0.165-0.373,0.371-0.374C177.425,362.681,177.589,362.839,177.598,363.038z"/>
								</g>
							</g>
						</g>
						<g>
							<g>
								<path style="fill:#82C4E8;" d="M142.229,386.408c0,0-13.264-1.726-14.838-6.787c-1.575-5.061-8.316-3.037-10.84-5.533
									c-2.524-2.496-2.495-7.101,3.844-6.012c6.339,1.089,6.736,0.712,8.99-3.246c2.254-3.958,10.322,0.38,13.752,2.954
									s-0.583-4.362,4.071-3.587c4.654,0.775,10.151,10.749,11.489,19.066s-14.773,9.801-17.623,7.762
									S143.489,388.75,142.229,386.408z"/>
							</g>
							<g>
								<path style="fill:#6CB7D8;" d="M126.619,378.092c0.32,0.422,0.584,0.923,0.772,1.528c1.575,5.061,14.838,6.787,14.838,6.787
									c1.26,2.343-4.006,2.577-1.156,4.616c2.85,2.039,18.961,0.555,17.623-7.762c-0.072-0.447-0.158-0.899-0.253-1.353
									C148.383,377.873,137.471,376.596,126.619,378.092z"/>
							</g>
							<g>
								<g>
									<path style="fill:#98CFF4;" d="M158.746,385.892c0.038,0.095,0.027,0.208-0.04,0.296c-0.101,0.135-0.292,0.162-0.427,0.06
										c-0.14-0.105-14.316-10.577-40.412-14.424c-0.167-0.024-0.282-0.179-0.257-0.346c0.024-0.167,0.18-0.282,0.346-0.257
										c26.261,3.872,40.548,14.434,40.689,14.54C158.692,385.796,158.726,385.842,158.746,385.892z"/>
								</g>
								<g>
									<path style="fill:#98CFF4;" d="M125.62,372.94l-4.718,2.205c-0.152,0.071-0.334,0.006-0.405-0.147
										c-0.069-0.152-0.005-0.334,0.147-0.405l4.081-1.908l-1.97-3.023c-0.093-0.143-0.052-0.33,0.089-0.422
										c0.141-0.092,0.33-0.052,0.422,0.089L125.62,372.94z"/>
								</g>
								<g>
									<path style="fill:#98CFF4;" d="M132.211,365.126c0.004,0.009,0.007,0.018,0.009,0.027l3.014,10.259l-6.581,3.757
										c-0.146,0.083-0.332,0.033-0.416-0.114c-0.085-0.146-0.033-0.332,0.114-0.416l6.162-3.518l-2.878-9.797
										c-0.047-0.162,0.045-0.331,0.207-0.379C131.995,364.902,132.154,364.982,132.211,365.126z"/>
								</g>
								<g>
									<path style="fill:#98CFF4;" d="M142,368.015c0.002,0.004,0.003,0.009,0.005,0.013l3.896,11.215l-9.539,4.521
										c-0.152,0.072-0.334,0.007-0.406-0.145c-0.071-0.159-0.007-0.334,0.145-0.406l9.045-4.287l-3.716-10.698
										c-0.055-0.159,0.029-0.333,0.188-0.388C141.772,367.786,141.94,367.864,142,368.015z"/>
								</g>
								<g>
									<path style="fill:#98CFF4;" d="M148.918,367.397c0.002,0.004,0.003,0.008,0.004,0.012l5.645,16.053l-10.925,6.045
										c-0.147,0.081-0.333,0.028-0.415-0.119c-0.08-0.148-0.028-0.333,0.119-0.415l10.475-5.795l-5.474-15.567
										c-0.056-0.159,0.028-0.333,0.186-0.389C148.689,367.168,148.858,367.246,148.918,367.397z"/>
								</g>
							</g>
						</g>
						<g>
							<g>
								<g>
									<path style="fill:#ACDAFF;" d="M195.095,383.943c0,0,19.252-8.098,19.524-16.37c0.272-8.272,11.26-8.02,14.024-12.825
										s0.812-11.725-8.279-7.457s-9.845,3.865-14.88-1.159c-5.035-5.025-15.382,4.852-19.477,10.149
										c-4.095,5.297-0.931-6.808-7.616-3.712s-10.824,20.391-9.389,33.466c1.434,13.075,26.303,8.628,29.749,4.378
										C202.195,386.161,194.17,387.992,195.095,383.943z"/>
								</g>
							</g>
							<g>
								<path style="fill:#98CFF4;" d="M215.146,364.952c-0.306,0.768-0.495,1.632-0.528,2.621
									c-0.272,8.272-19.524,16.37-19.524,16.37c-0.925,4.049,7.1,2.218,3.655,6.469c-3.445,4.251-28.314,8.697-29.749-4.378
									c-0.077-0.702-0.135-1.418-0.18-2.142C182.291,373.646,198.189,367.198,215.146,364.952z"/>
							</g>
							<g>
								<g>
									<path style="fill:#D2EDFF;" d="M170.017,390.016c-0.018,0.159,0.046,0.324,0.182,0.429
										c0.208,0.161,0.507,0.122,0.668-0.086c0.167-0.216,17.165-21.859,54.856-38.472c0.241-0.106,0.351-0.387,0.244-0.628
										c-0.106-0.241-0.387-0.35-0.628-0.244c-37.929,16.718-55.057,38.543-55.225,38.762
										C170.058,389.849,170.026,389.932,170.017,390.016z"/>
								</g>
								<g>
									<path style="fill:#D2EDFF;" d="M214.514,356.781l8.016,1.364c0.259,0.044,0.505-0.13,0.549-0.39
										c0.041-0.257-0.131-0.505-0.39-0.549l-6.936-1.18l1.712-5.368c0.081-0.254-0.058-0.519-0.309-0.599
										c-0.251-0.08-0.519,0.058-0.599,0.309L214.514,356.781z"/>
								</g>
								<g>
									<path style="fill:#D2EDFF;" d="M201.351,347.751c-0.002,0.015-0.003,0.03-0.003,0.045l-0.283,16.694l11.465,2.928
										c0.255,0.065,0.514-0.089,0.579-0.344c0.067-0.255-0.089-0.514-0.344-0.579l-10.735-2.742l0.27-15.941
										c0.004-0.263-0.205-0.48-0.468-0.484C201.585,347.324,201.378,347.51,201.351,347.751z"/>
								</g>
								<g>
									<path style="fill:#D2EDFF;" d="M187.813,356.16c-0.001,0.007-0.002,0.014-0.002,0.021l-1.215,18.498l16.236,2.85
										c0.259,0.045,0.506-0.128,0.551-0.386c0.04-0.269-0.128-0.506-0.386-0.551l-15.394-2.703l1.158-17.646
										c0.017-0.262-0.181-0.489-0.444-0.506C188.062,355.72,187.841,355.908,187.813,356.16z"/>
								</g>
								<g>
									<path style="fill:#D2EDFF;" d="M177.142,358.098c-0.001,0.006-0.001,0.013-0.002,0.019l-1.841,26.508l18.954,4.57
										c0.256,0.061,0.513-0.096,0.575-0.351c0.059-0.256-0.096-0.513-0.351-0.575l-18.172-4.381l1.785-25.705
										c0.018-0.262-0.179-0.49-0.442-0.508C177.393,357.658,177.17,357.846,177.142,358.098z"/>
								</g>
							</g>
						</g>
						<g>
							<polygon style="fill:#FF9900;" points="224.43,414.858 81.03,414.858 77.43,382.113 228.03,382.113 							"/>
							<polygon style="fill:#FFBC00;" points="225.476,405.34 79.984,405.34 80.256,407.816 225.204,407.816 							"/>
							<polygon style="fill:#FFBC00;" points="226.441,396.563 79.019,396.563 79.547,401.364 225.913,401.364 							"/>
							<rect x="75.179" y="379.848" style="fill:#FFBC00;" width="154.835" height="7.713"/>
						</g>
					</g>
				</g>
				<g>
					<path style="fill:#144182;" d="M357.538,422.289H235.753c-8.619,0-22.013-6.48-21.013-15.099l37.196-258.909
						c1-8.619,8.798-15.607,17.418-15.607l114.331-4.457c13.904,0,22.249,11.444,21.249,20.064l-29.979,258.401
						C373.955,415.301,366.157,422.289,357.538,422.289z"/>
					<g>
						<g>
							<g>
								<path style="fill:#2099FF;" d="M348.564,417.758H226.78c-8.619,0-14.796-6.987-13.796-15.607l29.979-258.401
									c1-8.619,8.798-15.607,17.418-15.607h121.784c8.619,0,14.796,6.987,13.796,15.607l-29.979,258.401
									C364.982,410.77,357.184,417.758,348.564,417.758z"/>
								<path style="fill:#ACDAFF;" d="M348.534,412.34H228.067c-6.56,0-11.26-5.318-10.499-11.877l29.69-255.911
									c0.761-6.56,6.696-11.877,13.255-11.877H380.98c6.56,0,11.26,5.318,10.499,11.877l-29.69,255.911
									C361.028,407.022,355.094,412.34,348.534,412.34z"/>
								<path style="fill:#2099FF;" d="M299.243,405.901h-25.11c-2.907,0-5.01-2.379-4.673-5.286l0,0
									c0.337-2.907,2.992-5.286,5.9-5.286h25.11c2.907,0,5.01,2.379,4.673,5.286l0,0
									C304.805,403.522,302.15,405.901,299.243,405.901z"/>
								
									<ellipse transform="matrix(0.7273 -0.6863 0.6863 0.7273 -25.7402 219.533)" style="fill:#2099FF;" cx="263.381" cy="142.157" rx="4.206" ry="3.746"/>
								
									<ellipse transform="matrix(0.7273 -0.6863 0.6863 0.7273 -22.8399 226.8323)" style="fill:#2099FF;" cx="274.017" cy="142.157" rx="2.534" ry="2.257"/>
							</g>
							<polygon style="fill:#FFFFFF;" points="356.675,389.287 224.268,389.287 251.713,152.729 384.12,152.729 							"/>
							<path style="fill:#E6F2FF;" d="M365.789,189.229H261.691c-3.198,0-5.489-2.592-5.118-5.79l2.103-18.124
								c0.371-3.198,3.264-5.79,6.461-5.79h104.098c3.198,0,5.489,2.592,5.118,5.79l-2.103,18.124
								C371.879,186.637,368.986,189.229,365.789,189.229z"/>
							<g>
								
									<text transform="matrix(0.9933 0 -0.1152 0.9933 269.7095 177.0655)" style="fill:#ACDAFF; font-family:'Montserrat-SemiBold'; font-size:10.1468px;">Monday 11.00 AM</text>
							</g>
						</g>
						<g>
							<g>
								<g>
									<polygon style="fill:#E6F2FF;" points="275.818,221.789 252.124,221.789 254.872,198.095 278.567,198.095 									"/>
									<g>
										<polygon style="fill:#ACDAFF;" points="306.479,221.789 282.784,221.789 285.533,198.095 309.228,198.095 										"/>
									</g>
									<polygon style="fill:#E6F2FF;" points="337.14,221.789 313.445,221.789 316.194,198.095 339.889,198.095 									"/>
									<polygon style="fill:#E6F2FF;" points="367.801,221.789 344.106,221.789 346.855,198.095 370.55,198.095 									"/>
								</g>
								<g>
									<polygon style="fill:#E6F2FF;" points="272.303,252.089 248.608,252.089 251.357,228.395 275.052,228.395 									"/>
									<polygon style="fill:#E6F2FF;" points="302.964,252.089 279.269,252.089 282.018,228.395 305.713,228.395 									"/>
									<polygon style="fill:#E6F2FF;" points="333.625,252.089 309.93,252.089 312.679,228.395 336.374,228.395 									"/>
									<polygon style="fill:#E6F2FF;" points="364.286,252.089 340.591,252.089 343.34,228.395 367.035,228.395 									"/>
								</g>
								<g>
									<polygon style="fill:#E6F2FF;" points="268.787,282.39 245.093,282.39 247.842,258.695 271.536,258.695 									"/>
									<polygon style="fill:#E6F2FF;" points="299.448,282.39 275.754,282.39 278.503,258.695 302.197,258.695 									"/>
									<g>
										<polygon style="fill:#E6F2FF;" points="330.109,282.39 306.415,282.39 309.164,258.695 332.858,258.695 										"/>
									</g>
									<polygon style="fill:#E6F2FF;" points="360.77,282.39 337.076,282.39 339.825,258.695 363.519,258.695 									"/>
								</g>
								<g>
									<polygon style="fill:#E6F2FF;" points="265.272,312.69 241.578,312.69 244.327,288.995 268.021,288.995 									"/>
									<polygon style="fill:#E6F2FF;" points="295.933,312.69 272.239,312.69 274.987,288.995 298.682,288.995 									"/>
									<polygon style="fill:#E6F2FF;" points="326.594,312.69 302.899,312.69 305.648,288.995 329.343,288.995 									"/>
									<polygon style="fill:#E6F2FF;" points="357.255,312.69 333.56,312.69 336.309,288.995 360.004,288.995 									"/>
								</g>
							</g>
						</g>
						<g>
							<g>
								<g>
									<path style="fill:#E6F2FF;" d="M259.438,361.695c0.216-1.858,1.903-3.369,3.761-3.369h21.41
										c2.011,0,3.873-1.154,4.858-3.013c0.985-1.858,0.816-3.896-0.441-5.318l-8.312-9.403c-0.814-0.922-1.981-1.429-3.285-1.429
										h-26.041c-1.431,0-2.605-0.908-2.919-2.26l-1.103-4.738c-0.243-1.044,0.045-2.159,0.789-3.061
										c0.745-0.901,1.806-1.418,2.912-1.418h35.921c0.892,0,1.693,0.345,2.255,0.972l13.447,14.995
										c0.116-0.66,0.249-1.318,0.384-1.969l-12.646-14.101c-0.814-0.907-1.974-1.407-3.266-1.407h-35.921
										c-1.601,0-3.139,0.749-4.217,2.054c-1.079,1.306-1.496,2.921-1.144,4.433l1.103,4.738c0.456,1.958,2.155,3.273,4.228,3.273
										h26.041c0.9,0,1.706,0.35,2.268,0.987l8.312,9.403c1.038,1.173,0.837,2.667,0.304,3.672
										c-0.533,1.006-1.695,2.08-3.355,2.08h-21.41c-2.691,0-5.134,2.189-5.446,4.88l-0.576,4.966
										c-0.312,2.691,1.623,4.88,4.314,4.88h23.656c1.858,0,3.194,1.512,2.972,3.427c-0.215,1.858-1.903,3.37-3.761,3.37h-47.321
										l-0.175,1.51h47.321c2.691,0,5.134-2.189,5.453-4.937c0.312-2.691-1.623-4.88-4.314-4.88h-23.656
										c-1.858,0-3.194-1.512-2.979-3.37L259.438,361.695z"/>
								</g>
								<g>
									<g>
										<g>
											<path style="fill:#ACDAFF;" d="M311.486,331.499c-0.447,3.852-8.607,14.077-8.607,14.077s-5.787-10.225-5.341-14.077
												s3.931-6.974,7.783-6.974S311.933,327.647,311.486,331.499z"/>
										</g>
										<g>
											
												<ellipse transform="matrix(0.7273 -0.6863 0.6863 0.7273 -144.2421 299.3345)" style="fill:#FFFFFF;" cx="304.55" cy="331.176" rx="3.969" ry="3.534"/>
										</g>
									</g>
								</g>
							</g>
							
								<ellipse transform="matrix(0.7273 -0.6863 0.6863 0.7273 -194.6836 268.221)" style="fill:#ACDAFF;" cx="240.177" cy="379.093" rx="6.202" ry="5.523"/>
							
								<ellipse transform="matrix(0.7273 -0.6863 0.6863 0.7273 -194.6836 268.221)" style="fill:#FFFFFF;" cx="240.177" cy="379.093" rx="3.201" ry="2.851"/>
						</g>
					</g>
				</g>
				<g>
					<path style="fill:#FF9900;" d="M185.172,270.66c0,0,12.448-18.119,14.421-22.431s2.188-7.979-0.905-10.219
						s-8.794-3.997-13.833,3.103c-5.038,7.101-14.352,28.909-14.733,35.732s30.473,27.481,33.215,28.816
						c3.022-0.79,4.304-5.303,4.304-5.303S187.719,275.066,185.172,270.66z"/>
					<path style="fill:#F79E77;" d="M195.385,420.568c0,0,0.625,3.58-1.421,8.978c-2.046,5.398-2.159,7.103,0,8.296
						c2.159,1.193,3.694,1.534,9.717,0c6.023-1.534,12.729-4.887,12.729-4.887s-6.535-4.148-8.126-5.91
						c-1.591-1.762-4.944-8.069-4.887-8.978C203.454,417.159,195.385,420.568,195.385,420.568z"/>
					<path style="fill:#0C2C51;" d="M211.765,429.839c-2.424,1.616-4.739,3.382-7.843,2.939c-2.492-0.623-3.426-3.115-4.984-4.984
						c-1.074-0.859-2.74-1.125-4.182-0.697c-0.204,0.765-0.463,1.583-0.791,2.449c-2.046,5.398-2.159,7.103,0,8.296
						c2.159,1.193,3.694,1.534,9.717,0c6.023-1.534,12.729-4.887,12.729-4.887S214.01,431.432,211.765,429.839z"/>
					<path style="fill:#FFB797;" d="M268.449,234.117l7.543,3.247c2.501-3.1,4.38-5.436,5.607-5.69
						c3.193,0.428,4.563-0.923,5.417-2.014c0.854-1.09-0.214-1.715-0.075-2.133c0.882-1.298-0.614-1.808-0.374-2.115
						c0.927-1.082,0.755-1.668,0.196-1.964c-0.559-0.296-1.501-0.571-1.328-1.115s2.468-1.994,4.463-2.939
						c1.995-0.945,4.189-2.461,2.975-3.258c-1.214-0.797-12.548,4.648-14.669,6.971c-2.121,2.323-1.575,4.796-4.235,7.355
						C273.004,231.391,270.865,232.765,268.449,234.117z"/>
					<path style="fill:#FFAE83;" d="M203.265,419.469c0,0,0.53,7.349-1.818,13.335c-2.349,5.985-1.667,8.637,2.576,9.85
						s6.592-1.667,12.123-1.515c5.531,0.152,12.88-0.455,14.774-5.531c1.894-5.076-6.948-2.808-12.301-4.397
						s-2.973-10.984-2.973-10.984L203.265,419.469z"/>
					<path style="fill:#0F3163;" d="M218.769,431.104c-0.48,1.609,3.885,3.307,2.596,4.166c-4.672,3.426-10.279-2.492-15.574-4.361
						c-1.079-0.539-2.365-0.558-3.619-0.299c-0.205,0.741-0.444,1.477-0.725,2.194c-2.349,5.986-1.667,8.637,2.576,9.85
						c4.243,1.212,6.592-1.667,12.123-1.515c5.531,0.152,15.993-0.896,17.887-5.972C235.907,430.141,224.136,432.6,218.769,431.104z
						"/>
					<g>
						<g>
							<g>
								<path style="fill:#0C2C51;" d="M233.382,432.741c-0.03,0.119-0.064,0.24-0.112,0.368
									c-1.894,5.076-12.356,6.124-17.887,5.972c-5.531-0.152-7.88,2.728-12.123,1.515c-1.456-0.416-2.482-1.007-3.121-1.839
									c0.182,2.016,1.438,3.197,3.882,3.895c4.243,1.212,6.592-1.667,12.122-1.515c5.531,0.152,15.993-0.896,17.887-5.972
									C234.466,434.003,234.162,433.244,233.382,432.741z"/>
							</g>
						</g>
					</g>
					<path style="fill:#144182;" d="M212.205,325.217c-2.896-1.372-4.843-3.41-6.106-5.665c-2.502-4.47-2.302-9.799-1.395-12.519
						c1.364-4.091,6.819-14.395,6.819-14.395l-13.411-2.481c0,0-6.023,10.399-9.092,18.582c-3.069,8.183-0.568,16.82,0.909,23.298
						c1.477,6.478,5.228,25.003,3.637,31.935c-1.591,6.933-4.546,17.502-3.75,25.571c0.796,8.069,4.773,27.276,4.66,31.594
						c1.342,0.6,2.656,0.804,3.87,0.775c3.619-0.087,6.358-2.253,6.358-2.253s0.909-33.072,4.319-47.619
						C212.432,357.493,215.842,330.445,212.205,325.217z"/>
					<path style="fill:#0F3163;" d="M212.205,325.217c-2.896-1.372-4.843-3.41-6.106-5.665c-5.675-2.682-1.718-13.097-2.178-19.526
						c-2.247,6.206-10.844,17.392,0.904,31.331c4.181,3.883,0.1,34.347-3.485,48.086c-3.213,11.649-1.809,30.358-1.241,42.262
						c2.712-0.556,4.604-2.046,4.604-2.046s0.909-33.072,4.319-47.619C212.432,357.493,215.842,330.445,212.205,325.217z"/>
					<path style="fill:#144182;" d="M233.647,292.486c0,0,3.94,15.002,2.728,31.064c-1.212,16.062-11.971,43.035-13.183,48.945
						c-1.212,5.91-2.879,22.904-4.394,30.545c-1.515,7.641-2.273,14.763-1.44,16.733c-3.561,3.788-13.032,3.334-15.153,0
						c0.758-15.608,0.379-29.018,3.334-39.55s1.136-13.259,2.349-19.851c1.212-6.592,2.424-26.973,3.031-29.397
						c0.606-2.424-5.455-3.637-7.652-7.577c-2.197-3.94-6.743-13.411,5.834-32.731C222.509,290.213,233.647,292.486,233.647,292.486
						z"/>
					<path style="fill:#164E91;" d="M233.647,292.486c0,0-11.138-2.273-24.548-1.818c-0.252,0.387-0.486,0.764-0.724,1.143
						c11.061,0.141,19.531,1.869,19.531,1.869s3.94,15.002,2.728,31.064c-1.212,16.062-9.804,42.587-11.016,48.497
						c-1.212,5.91-1.692,22.134-3.207,29.775c-1.307,6.589-1.546,14.787-1.053,18.186c0.769-0.385,1.459-0.851,2-1.428
						c-0.833-1.97-0.076-9.092,1.44-16.733c1.515-7.641,3.182-24.635,4.394-30.545c1.212-5.91,11.971-32.882,13.183-48.945
						C237.587,307.488,233.647,292.486,233.647,292.486z"/>
					<path style="fill:#FFAE83;" d="M226.752,201.87c0,0,1.136,13.486-0.379,17.653c-1.515,4.167-3.031,7.198-3.864,8.031
						s-4.845-0.682-5.642,0c-0.798,0.682-0.722,8.486-0.722,8.486l-11.138-0.455c0,0,1.288-14.092,2.273-17.956
						C208.265,213.765,225.616,201.567,226.752,201.87z"/>
					<path style="fill:#FFAA00;" d="M200.386,235.321c0,0,8.637-4.319,15.684-0.909c7.046,3.409,18.07,17.729,19.775,20.457
						s2.841,8.865,0,14.433c-2.841,5.569-1.818,21.934-0.341,24.775c-11.933,3.523-30.458,1.25-38.981-2.5
						c4.773-6.933,7.274-9.546,3.864-17.161S192.885,245.208,200.386,235.321z"/>
					<path style="fill:#FF9900;" d="M230.48,270.352c2.841-5.569,1.705-11.706,0-14.433c-1.705-2.728-12.729-17.047-19.775-20.457
						c-2.434-1.178-5.052-1.423-7.444-1.253c-1.752,0.556-2.875,1.112-2.875,1.112c-7.501,9.887-3.41,31.481,0,39.095
						c3.409,7.614,0.909,10.228-3.864,17.161c7.172,3.156,21.426,5.265,32.875,3.755c0.249-0.067,0.499-0.133,0.742-0.205
						C228.661,292.286,227.639,275.921,230.48,270.352z"/>
					<path style="fill:#FFBC00;" d="M243.913,251.8c0,0-17.984-12.642-22.275-14.661c-4.291-2.019-7.955-2.273-10.228,0.796
						c-2.273,3.069-4.091,8.751,2.955,13.865c7.046,5.114,28.753,14.661,35.572,15.115c6.819,0.455,27.806-30.176,29.17-32.904
						c-0.758-3.031-5.256-4.361-5.256-4.361S248.345,249.3,243.913,251.8z"/>
					<g>
						<path style="fill:#FF69A6;" d="M214.365,251.8c-0.239-0.174-0.445-0.338-0.665-0.506
							C213.912,251.463,214.133,251.632,214.365,251.8z"/>
						<path style="fill:#FFD815;" d="M210.97,240.903c2.273-3.069,5.938-2.814,10.228-0.796c4.291,2.019,21.59,13.323,21.59,13.323
							c4.432-2.5,31.061-23.781,31.061-23.781S248.345,249.3,243.913,251.8c0,0-17.984-12.642-22.275-14.661
							c-4.291-2.019-7.955-2.273-10.228,0.796c-1.063,1.436-2.027,3.444-2.03,5.698C209.698,242.706,210.291,241.82,210.97,240.903z
							"/>
					</g>
					<path style="fill:#144182;" d="M225.919,195.506c-5.152-5.152-14.699-7.122-14.699-7.122
						c-8.101-2.751-14.395,4.849-16.214,11.668c-1.818,6.819-0.924,14.753-3.712,23.713c-1.41,4.367-21.587,35.619,4.865,58.254
						c6.724,3.322,11.871,4.784,19.139-0.823c-7.658-18.206-5.238-35.678-3.694-40.917c1.493-5.066,4.561-5.254,7.376-4.208
						c0.128,0.05,0.254,0.099,0.386,0.152c-0.262-0.513-0.601-1.103-1.002-1.75c-1.418-4.226-0.083-12.992,2.819-16.087
						c3.409-3.637,5.001-9.546,5.569-13.865c0.796,5.114-1.023,8.296-2.273,10.115C229.366,210.886,231.071,200.658,225.919,195.506
						z"/>
					<path style="fill:#0F3163;" d="M193.476,263.259c-2.987-20.907,5.376-42.412,13.142-62.124
						c2.324-6.042,8.987-8.828,15.769-8.361c-5.077-3.131-11.167-4.39-11.167-4.39c-8.101-2.751-14.395,4.849-16.214,11.668
						c-1.818,6.819-0.924,14.753-3.712,23.713c-1.41,4.367-21.587,35.619,4.865,58.254c5.436,2.686,9.841,4.154,15.169,1.657
						c-2.272-0.405-4.932-1.889-5.497-2.347C199.858,277.148,194.671,270.427,193.476,263.259z"/>
				</g>
				<g>
					<g>
						<g>
							<path style="fill:#82C4E8;" d="M353.762,282.22c0,0-11.458-33.917-1.145-43.658c10.314-9.741-2.486-23.566,0.546-32.571
								c3.032-9.005,14.135-14.355,18.976,2.165s6.214,17.031,18.383,17.792c12.169,0.761,11.233,25.262,9.081,36.535
								c-2.152,11.273,9.8-6.534,13.414,5.566s-13.896,37.051-32.315,50.055c-18.419,13.003-40.945-23.981-39.398-33.231
								C342.853,275.622,349.613,288.005,353.762,282.22z"/>
						</g>
						<g>
							<path style="fill:#6CB7D8;" d="M355.384,234.908c-0.639,1.266-1.533,2.489-2.766,3.654
								c-10.314,9.741,1.145,43.658,1.145,43.658c-4.15,5.785-10.91-6.598-12.457,2.652c-1.547,9.25,20.979,46.235,39.398,33.231
								c0.989-0.698,1.975-1.437,2.955-2.201C381.523,286.97,371.752,259.235,355.384,234.908z"/>
						</g>
						<g>
							<g>
								<path style="fill:#98CFF4;" d="M374.438,321.319c-0.185,0.204-0.468,0.309-0.758,0.253
									c-0.443-0.085-0.733-0.512-0.648-0.955c0.088-0.461,8.581-46.861-12.879-114.124c-0.138-0.429,0.099-0.89,0.529-1.025
									c0.429-0.138,0.889,0.1,1.025,0.529c21.596,67.689,13.016,114.463,12.926,114.927
									C374.605,321.078,374.535,321.212,374.438,321.319z"/>
							</g>
							<g>
								<path style="fill:#98CFF4;" d="M366.594,226.444l-10.853-8.746c-0.351-0.282-0.406-0.796-0.123-1.147
									c0.283-0.345,0.797-0.406,1.147-0.123l9.39,7.566l4.949-8.293c0.234-0.392,0.732-0.514,1.119-0.283
									c0.387,0.231,0.514,0.732,0.283,1.119L366.594,226.444z"/>
							</g>
							<g>
								<path style="fill:#98CFF4;" d="M393.135,233.094c-0.017,0.019-0.035,0.037-0.054,0.055l-21.117,19.317l-16.776-11.398
									c-0.373-0.253-0.469-0.761-0.216-1.134c0.252-0.376,0.761-0.469,1.134-0.216l15.709,10.672l20.165-18.446
									c0.333-0.304,0.849-0.281,1.153,0.052C393.419,232.309,393.415,232.786,393.135,233.094z"/>
							</g>
							<g>
								<path style="fill:#98CFF4;" d="M397.709,260.026c-0.008,0.009-0.017,0.018-0.025,0.027l-22.376,22.563l-22.094-17.613
									c-0.353-0.281-0.411-0.795-0.13-1.147c0.3-0.357,0.794-0.41,1.147-0.13l20.949,16.7l21.345-21.522
									c0.317-0.32,0.834-0.322,1.154-0.005C397.99,259.208,398.001,259.705,397.709,260.026z"/>
							</g>
							<g>
								<path style="fill:#98CFF4;" d="M407.335,275.93c-0.007,0.008-0.015,0.017-0.023,0.024l-31.95,32.461l-27.388-19.151
									c-0.369-0.259-0.46-0.767-0.202-1.137c0.263-0.366,0.768-0.46,1.137-0.202l26.258,18.362l30.982-31.477
									c0.316-0.321,0.833-0.326,1.154-0.009C407.615,275.109,407.627,275.608,407.335,275.93z"/>
							</g>
						</g>
					</g>
					<g>
						<g>
							<path style="fill:#98CFF4;" d="M349.046,357.544c0,0-25.036-12.528-24.671-23.617c0.365-11.088-14.354-11.72-17.628-18.39
								c-3.274-6.67-0.053-15.754,11.731-9.245s12.827,6.038,20.004-0.239c7.177-6.277,20.146,7.846,25.157,15.291
								c5.011,7.445,1.846-9.024,10.514-4.294c8.668,4.73,12.68,28.227,9.61,45.589c-3.071,17.362-35.942,9.223-40.176,3.234
								C339.355,359.886,349.927,363.041,349.046,357.544z"/>
						</g>
						<g>
							<path style="fill:#82C4E8;" d="M323.9,330.376c0.342,1.055,0.519,2.227,0.475,3.552
								c-0.365,11.088,24.671,23.617,24.671,23.617c0.88,5.497-9.692,2.342-5.458,8.331c4.233,5.989,37.105,14.128,40.176-3.234
								c0.165-0.932,0.305-1.885,0.43-2.849C367.079,344.899,346.383,334.875,323.9,330.376z"/>
						</g>
						<g>
							<g>
								<path style="fill:#ACDAFF;" d="M382.054,367.876c0.009,0.215-0.09,0.429-0.282,0.558c-0.293,0.197-0.689,0.119-0.885-0.174
									c-0.205-0.304-21.033-30.75-69.981-56.292c-0.313-0.163-0.435-0.549-0.27-0.861c0.163-0.313,0.549-0.434,0.861-0.27
									c49.259,25.704,70.244,56.404,70.45,56.712C382.014,367.65,382.049,367.763,382.054,367.876z"/>
							</g>
							<g>
								<path style="fill:#ACDAFF;" d="M325.467,319.503l-10.842,1.118c-0.35,0.037-0.664-0.219-0.7-0.569
									c-0.033-0.347,0.219-0.664,0.569-0.7l9.381-0.967l-1.817-7.33c-0.086-0.346,0.124-0.689,0.466-0.773
									c0.342-0.085,0.688,0.124,0.773,0.466L325.467,319.503z"/>
							</g>
							<g>
								<path style="fill:#ACDAFF;" d="M343.868,308.585c0.001,0.02,0.001,0.04,0,0.06l-1.093,22.354l-15.592,2.906
									c-0.346,0.064-0.68-0.164-0.744-0.511c-0.067-0.348,0.164-0.68,0.511-0.744l14.6-2.721l1.044-21.346
									c0.018-0.352,0.317-0.623,0.669-0.606C343.593,307.993,343.853,308.259,343.868,308.585z"/>
							</g>
							<g>
								<path style="fill:#ACDAFF;" d="M361.235,321.024c0,0.009,0.001,0.019,0.001,0.029l-0.006,24.849l-21.967,2.382
									c-0.351,0.038-0.666-0.215-0.704-0.565c-0.03-0.364,0.215-0.665,0.565-0.704l20.828-2.258l0.006-23.704
									c0-0.352,0.286-0.638,0.638-0.638C360.94,320.415,361.22,320.685,361.235,321.024z"/>
							</g>
							<g>
								<path style="fill:#ACDAFF;" d="M375.336,324.558c0,0.009,0.001,0.017,0.001,0.026l0.126,35.617l-25.754,4.442
									c-0.347,0.06-0.678-0.173-0.738-0.52c-0.056-0.348,0.174-0.678,0.52-0.738l24.692-4.258l-0.123-34.538
									c-0.001-0.352,0.283-0.639,0.636-0.64C375.04,323.947,375.321,324.218,375.336,324.558z"/>
							</g>
						</g>
					</g>
					<g>
						<g>
							<g>
								<path style="fill:#ACDAFF;" d="M414.374,341.364c0,0,21.423-28.683,14.644-41.145c-6.779-12.462,9.68-21.63,9.594-31.131
									c-0.086-9.501-8.979-18.034-18.711-3.834c-9.732,14.2-11.195,14.26-22.999,11.205c-11.803-3.055-18.522,20.526-19.976,31.91
									s-7.287-9.254-14.479,1.125c-7.192,10.379,1.705,39.535,15.176,57.614c13.471,18.08,46.367-10.083,47.769-19.356
									C426.794,338.479,416.523,348.151,414.374,341.364z"/>
							</g>
						</g>
						<g>
							<path style="fill:#98CFF4;" d="M427.523,295.887c0.214,1.401,0.685,2.843,1.495,4.332
								c6.779,12.462-14.644,41.145-14.644,41.145c2.149,6.787,12.419-2.885,11.018,6.389c-1.402,9.273-34.298,37.436-47.769,19.356
								c-0.723-0.971-1.431-1.979-2.126-3.01C386.511,337.26,404.41,313.929,427.523,295.887z"/>
						</g>
						<g>
							<g>
								<path style="fill:#D2EDFF;" d="M382.581,372.111c0.112,0.251,0.349,0.439,0.642,0.476c0.447,0.057,0.856-0.26,0.912-0.707
									c0.06-0.465,6.393-47.21,47.677-104.485c0.264-0.366,0.183-0.877-0.185-1.139c-0.366-0.264-0.876-0.181-1.139,0.185
									c-41.545,57.638-47.912,104.764-47.972,105.234C382.496,371.829,382.521,371.979,382.581,372.111z"/>
							</g>
							<g>
								<path style="fill:#D2EDFF;" d="M419.494,284.36l13.032-4.944c0.421-0.159,0.633-0.631,0.473-1.052
									c-0.162-0.416-0.631-0.633-1.052-0.473l-11.276,4.277l-2.13-9.42c-0.101-0.445-0.537-0.716-0.976-0.617
									c-0.44,0.099-0.716,0.537-0.617,0.976L419.494,284.36z"/>
							</g>
							<g>
								<path style="fill:#D2EDFF;" d="M392.201,282.441c0.01,0.023,0.022,0.046,0.034,0.069l14.075,24.919l19.486-5.626
									c0.433-0.125,0.683-0.578,0.557-1.011c-0.123-0.436-0.578-0.683-1.011-0.557l-18.246,5.267l-13.441-23.796
									c-0.222-0.392-0.72-0.53-1.112-0.309C392.175,281.607,392.031,282.061,392.201,282.441z"/>
							</g>
							<g>
								<path style="fill:#D2EDFF;" d="M379.491,306.622c0.005,0.011,0.01,0.023,0.016,0.033l14.264,28.395l26.471-9.882
									c0.423-0.158,0.637-0.628,0.48-1.05c-0.174-0.433-0.628-0.637-1.05-0.48l-25.099,9.37l-13.608-27.086
									c-0.202-0.403-0.693-0.565-1.095-0.363C379.477,305.756,379.313,306.226,379.491,306.622z"/>
							</g>
							<g>
								<path style="fill:#D2EDFF;" d="M365.403,318.751c0.005,0.01,0.009,0.02,0.014,0.03l20.292,40.777l31.981-9.701
									c0.431-0.131,0.675-0.586,0.545-1.018c-0.136-0.43-0.588-0.675-1.018-0.545l-30.661,9.301l-19.677-39.541
									c-0.201-0.403-0.691-0.568-1.094-0.367C365.391,317.883,365.225,318.354,365.403,318.751z"/>
							</g>
						</g>
					</g>
					<g>
						<polygon style="fill:#FF9900;" points="343.563,369.583 406.634,369.583 393.517,432.023 352.853,432.023 						"/>
						<polygon style="fill:#FFBC00;" points="401.214,395.38 347.401,395.38 348.373,401.911 399.843,401.911 						"/>
						<polygon style="fill:#FFBC00;" points="399.25,404.731 348.792,404.731 349.278,407.996 398.564,407.996 						"/>
						<rect x="341.668" y="368.548" style="fill:#FFBC00;" width="66.74" height="8.873"/>
					</g>
				</g>
			</g>
		</g>
	</g>
</g>
</svg>
